<svg width="85" height="85" viewBox="0 0 85 85" fill="none" xmlns="http://www.w3.org/2000/svg">
<g clip-path="url(#clip0)">
<path d="M66.4396 73.1905C66.049 73.191 65.6702 73.0569 65.3668 72.8109C65.0635 72.5648 64.8541 72.2219 64.7739 71.8396C64.6937 71.4573 64.7476 71.0591 64.9265 70.7119C65.1054 70.3647 65.3984 70.0897 65.7562 69.9331C70.5553 67.8354 74.6217 64.3571 77.438 59.9411C80.2542 55.5252 81.6928 50.3711 81.5707 45.135C81.4487 39.8988 79.7714 34.8174 76.7525 30.5374C73.7336 26.2574 69.5095 22.9725 64.6178 21.1006C64.2006 20.9364 63.8652 20.614 63.6846 20.2037C63.504 19.7933 63.4928 19.3282 63.6534 18.9096C63.8141 18.4911 64.1336 18.1529 64.5424 17.9688C64.9512 17.7846 65.4161 17.7695 65.8361 17.9265C71.3625 20.0348 76.136 23.741 79.5479 28.5727C82.9597 33.4045 84.8554 39.1428 84.9933 45.0561C85.1312 50.9694 83.505 56.7898 80.322 61.7753C77.139 66.7608 72.5435 70.6855 67.1213 73.049C66.9063 73.143 66.6742 73.1912 66.4396 73.1905V73.1905Z" fill="#0091DA"/>
<path d="M1.78265 28.8407C1.53319 28.8406 1.28679 28.7856 1.0609 28.6798C0.835008 28.5739 0.635151 28.4197 0.475473 28.228C0.315796 28.0363 0.200202 27.8119 0.136873 27.5706C0.0735448 27.3293 0.0640302 27.0771 0.109003 26.8317C2.97945 11.2837 16.588 -6.07333e-05 32.4668 -6.07333e-05C37.5146 -0.00697331 42.4961 1.14903 47.0249 3.37829C51.5537 5.60754 55.5081 8.85012 58.5814 12.8545C58.8559 13.2121 58.9772 13.6642 58.9185 14.1112C58.8598 14.5582 58.6259 14.9636 58.2682 15.2382C57.9106 15.5128 57.4586 15.6341 57.0115 15.5753C56.5645 15.5166 56.1591 15.2827 55.8845 14.9251C53.1288 11.3342 49.5828 8.42651 45.5216 6.42776C41.4604 4.42901 36.9932 3.39294 32.4668 3.39994C18.2276 3.39994 6.02522 13.5149 3.45248 27.449C3.38046 27.8394 3.17406 28.1924 2.86905 28.4466C2.56405 28.7008 2.17969 28.8402 1.78265 28.8407Z" fill="#00A1B3"/>
<path d="M54.9447 26.6148C54.7279 26.6148 54.5083 26.6188 54.2859 26.6269C52.9117 22.0802 50.1094 18.0972 46.2942 15.2679C42.479 12.4387 37.8539 10.9137 33.1041 10.9189C20.9111 10.9189 10.9914 20.8001 10.9914 32.9445C10.9914 33.0178 10.9914 33.0914 10.9926 33.1657C7.87643 34.1852 5.14796 36.1361 3.17542 38.7551C1.20289 41.3741 0.0812263 44.5352 -0.0381922 47.8118C-0.157611 51.0883 0.73096 54.3227 2.50761 57.0783C4.28426 59.834 6.86348 61.9783 9.8972 63.222V59.4363C7.66128 58.2035 5.85228 56.3211 4.70949 54.0379C3.56671 51.7547 3.14399 49.1784 3.49727 46.6497C3.85054 44.121 4.96316 41.7592 6.68794 39.8766C8.41271 37.9941 10.6684 36.6795 13.1565 36.1067L14.5803 35.7742L14.474 34.3183C14.4356 33.792 14.4175 33.3555 14.4175 32.9445C14.4175 22.6842 22.8004 14.3367 33.1043 14.3367C37.3315 14.3315 41.4353 15.7606 44.7448 18.3905C48.0543 21.0204 50.3735 24.6953 51.3232 28.8144L51.6632 30.3048L53.1856 30.1348C53.7697 30.0685 54.357 30.0347 54.9449 30.0335C63.5284 30.0335 70.5116 36.9869 70.5116 45.5337C70.5193 47.7898 70.0296 50.0198 69.0773 52.0651C68.1251 54.1104 66.7336 55.9206 65.0021 57.3669V61.5825C67.7414 59.8969 70.0018 57.5359 71.5665 54.7257C73.1312 51.9155 73.9477 48.7505 73.9377 45.5341C73.9375 35.1016 65.4173 26.6148 54.9447 26.6148Z" fill="#1D428A"/>
<path d="M48.4264 77.0607H26.7359V73.6606H48.4264V77.0607ZM36.2812 61.5341L28.6601 53.903L26.2544 56.3055L31.4759 61.5341L26.2544 66.7627L28.6601 69.1652L36.2812 61.5341ZM56.4687 81.364V49.8783C56.4675 48.8626 56.0635 47.889 55.3454 47.1708C54.6272 46.4527 53.6536 46.0487 52.6379 46.0475H22.2152C21.1996 46.0487 20.2259 46.4527 19.5078 47.1708C18.7897 47.889 18.3858 48.8627 18.3846 49.8783V81.364C18.3858 82.3796 18.7897 83.3532 19.5078 84.0713C20.2259 84.7895 21.1996 85.1934 22.2152 85.1945H52.6375C53.6531 85.1934 54.6268 84.7895 55.3449 84.0714C56.0631 83.3532 56.4671 82.3796 56.4683 81.364H56.4687ZM52.6379 49.4465C52.7517 49.4479 52.8604 49.4938 52.9409 49.5743C53.0213 49.6547 53.0672 49.7634 53.0687 49.8772V81.364C53.0671 81.4777 53.0213 81.5864 52.9408 81.6668C52.8604 81.7472 52.7517 81.793 52.6379 81.7945H22.2152C22.1014 81.793 21.9928 81.7472 21.9124 81.6668C21.832 81.5864 21.7861 81.4777 21.7846 81.364V49.8783C21.7861 49.7645 21.832 49.6559 21.9124 49.5754C21.9928 49.4949 22.1014 49.4491 22.2152 49.4475L52.6379 49.4465Z" fill="#0091DA"/>
</g>
<defs>
<clipPath id="clip0">
<rect width="85" height="85" fill="white"/>
</clipPath>
</defs>
</svg>