<svg xmlns="http://www.w3.org/2000/svg" viewBox="0 0 326.133 301.511"><path d="M93.229,167.658,77.17,204.069h-4.5L56.606,167.658h4.5l13.833,31.323,13.78-31.323Zm5.7,0h4.134l13.514,25.387L130.1,167.658h4.134v36.411H130.1V176.562L116.58,201.949l-13.514-25.387v27.507H98.932Zm40.55,9.01h4.24l6.836,22.1,7.474-22.1h3.444l7.474,22.1,6.836-22.1h4.241l-9.222,27.4h-3.763l-7.261-21.889-7.368,21.889h-3.762Zm62.73,2.465a11.738,11.738,0,0,1,2.836,8.241v16.695h-3.975v-4.293a9.587,9.587,0,0,1-4.108,3.63,12.539,12.539,0,0,1-5.538,1.3,10.748,10.748,0,0,1-7.208-2.385,7.922,7.922,0,0,1-2.809-6.36,8.1,8.1,0,0,1,1.458-4.743,9.545,9.545,0,0,1,3.921-3.233,12.656,12.656,0,0,1,5.38-1.14,29.152,29.152,0,0,1,8.9,1.537v-1.007a9.264,9.264,0,0,0-1.7-5.644q-1.7-2.305-5.724-2.306a11.645,11.645,0,0,0-3.79.663,32.461,32.461,0,0,0-4.213,1.828l-1.59-3.233a22.217,22.217,0,0,1,9.858-2.65Q199.376,176.032,202.212,179.133Zm-4.5,20.564a6.843,6.843,0,0,0,3.366-4.214V191.3a30.908,30.908,0,0,0-8.268-1.113,8.848,8.848,0,0,0-5.327,1.59,4.8,4.8,0,0,0-2.2,4.028,4.683,4.683,0,0,0,1.934,3.949,7.92,7.92,0,0,0,4.9,1.457A11.038,11.038,0,0,0,197.707,199.7Zm22.752-22.048a12.944,12.944,0,0,1,6.573-1.617v3.551a12.452,12.452,0,0,0-5.486,1.166,9.055,9.055,0,0,0-3.763,3.26,8.555,8.555,0,0,0-1.351,4.743v15.317h-3.976v-27.4h3.976v5.353A9.336,9.336,0,0,1,220.459,177.649ZM247.368,200.2a9.829,9.829,0,0,0,3.736-2.332l2.438,2.6a12.291,12.291,0,0,1-4.9,3.074,17.618,17.618,0,0,1-6.122,1.166,13.338,13.338,0,0,1-6.837-1.855,14.057,14.057,0,0,1-5.114-5.168,14.371,14.371,0,0,1-1.935-7.393,14.68,14.68,0,0,1,1.829-7.261,13.533,13.533,0,0,1,4.929-5.141,12.927,12.927,0,0,1,6.757-1.855,11.541,11.541,0,0,1,9.567,4.293q3.418,4.293,3.418,11.554H232.713a10.478,10.478,0,0,0,3.1,6.678,9.171,9.171,0,0,0,6.651,2.6A13.51,13.51,0,0,0,247.368,200.2Zm-11.422-18.206a10.08,10.08,0,0,0-3.18,6.334H251.21a10.589,10.589,0,0,0-2.7-6.334,8.124,8.124,0,0,0-6.2-2.411A9.123,9.123,0,0,0,235.946,181.994ZM38.879,227.658H53.666a15.406,15.406,0,0,1,6.784,1.484A11.894,11.894,0,0,1,65.3,233.3a11.077,11.077,0,0,1,0,12.032,11.879,11.879,0,0,1-4.849,4.16,15.392,15.392,0,0,1-6.784,1.484H43.013v13.091H38.879Zm14.045,19.4a11.688,11.688,0,0,0,7.235-2.067,7.257,7.257,0,0,0,0-11.342,11.688,11.688,0,0,0-7.235-2.067H43.013v15.476Zm24.342,15.715a14.3,14.3,0,0,1-5.167-5.247,14.42,14.42,0,0,1,0-14.337,14.367,14.367,0,0,1,5.167-5.22,13.619,13.619,0,0,1,7.076-1.935,13.475,13.475,0,0,1,7.049,1.935,14.43,14.43,0,0,1,5.141,5.22,14.42,14.42,0,0,1,0,14.337,14.366,14.366,0,0,1-5.141,5.247,13.475,13.475,0,0,1-7.049,1.934A13.618,13.618,0,0,1,77.266,262.771ZM89.324,259.7a10.573,10.573,0,0,0,3.63-3.949,11.142,11.142,0,0,0,1.352-5.406,10.994,10.994,0,0,0-1.352-5.379,10.63,10.63,0,0,0-3.63-3.922,9.062,9.062,0,0,0-4.982-1.458,9.189,9.189,0,0,0-5.008,1.458,10.56,10.56,0,0,0-3.657,3.922,11,11,0,0,0-1.352,5.379,11.153,11.153,0,0,0,1.352,5.406,10.5,10.5,0,0,0,3.657,3.949,9.188,9.188,0,0,0,5.008,1.457A9.061,9.061,0,0,0,89.324,259.7Zm10.557-23.029h4.239l6.837,22.1,7.474-22.1h3.444l7.473,22.1,6.837-22.1h4.241l-9.223,27.4h-3.762L120.18,242.18l-7.368,21.889H109.05ZM160.82,260.2a9.841,9.841,0,0,0,3.737-2.332l2.437,2.6a12.291,12.291,0,0,1-4.9,3.074,17.614,17.614,0,0,1-6.122,1.166,13.338,13.338,0,0,1-6.837-1.855,14.064,14.064,0,0,1-5.114-5.168,14.371,14.371,0,0,1-1.935-7.393,14.68,14.68,0,0,1,1.829-7.261,13.533,13.533,0,0,1,4.929-5.141,12.927,12.927,0,0,1,6.757-1.855,11.538,11.538,0,0,1,9.567,4.293q3.418,4.293,3.418,11.554H146.165a10.483,10.483,0,0,0,3.1,6.678,9.171,9.171,0,0,0,6.651,2.6A13.506,13.506,0,0,0,160.82,260.2ZM149.4,241.994a10.08,10.08,0,0,0-3.18,6.334h18.444a10.589,10.589,0,0,0-2.7-6.334,8.124,8.124,0,0,0-6.2-2.411A9.125,9.125,0,0,0,149.4,241.994Zm32.838-4.345a12.942,12.942,0,0,1,6.572-1.617v3.551a12.451,12.451,0,0,0-5.485,1.166,9.055,9.055,0,0,0-3.763,3.26,8.556,8.556,0,0,0-1.352,4.743v15.317h-3.975v-27.4h3.975v5.353A9.343,9.343,0,0,1,182.236,237.649Zm19.817,24.486a19.223,19.223,0,0,1-6.863-6.917,18.512,18.512,0,0,1,0-18.735,19.282,19.282,0,0,1,6.863-6.89A17.966,17.966,0,0,1,218.4,228.48a18.6,18.6,0,0,1,5.988,4.107l-2.809,2.862a14.581,14.581,0,0,0-4.69-3.392,13.559,13.559,0,0,0-12.773.822,15.259,15.259,0,0,0-5.3,5.511,14.991,14.991,0,0,0,0,14.92,15.535,15.535,0,0,0,5.3,5.512,13.476,13.476,0,0,0,12.773.848,14.551,14.551,0,0,0,4.69-3.392l2.809,2.862a19.366,19.366,0,0,1-5.988,4.081,17.545,17.545,0,0,1-7.1,1.484A17.776,17.776,0,0,1,202.053,262.135Zm52.857-1.988v3.922H230.9V227.658h4.135v32.489Zm5.728-32.489h4.134v36.411h-4.134Zm14.5,2.3h-2.184v-2.1h6.608v2.1h-2.24v6.3h-2.184Zm5.768-2.1h2.184l2.492,4.172,2.492-4.172h2.212v8.4h-2.212v-4.676l-2.492,4.2-2.492-4.2v4.676H280.9Z" fill="#717074"/><path d="M194.327,130.47a2.111,2.111,0,0,1-.848-4.044,32.759,32.759,0,0,0-1.413-60.616,2.11,2.11,0,0,1,1.512-3.94,36.964,36.964,0,0,1,1.595,68.421A2.1,2.1,0,0,1,194.327,130.47Z" fill="#0091da"/><path d="M114.07,75.419a2.11,2.11,0,0,1-2.078-2.494,40.868,40.868,0,0,1,72.581-17.349,2.11,2.11,0,0,1-3.348,2.57,36.663,36.663,0,0,0-65.082,15.546A2.111,2.111,0,0,1,114.07,75.419Z" fill="#00c1d5"/><path d="M180.059,72.656q-.405,0-.817.015A27.461,27.461,0,0,0,125.5,80.513c0,.091,0,.183,0,.275a19.89,19.89,0,0,0-1.36,37.308v-4.7a15.651,15.651,0,0,1,4.045-28.957l1.768-.413-.132-1.808c-.048-.653-.07-1.2-.07-1.7a23.2,23.2,0,0,1,45.81-5.126l.421,1.85,1.89-.212a19.6,19.6,0,0,1,2.184-.126,19.3,19.3,0,0,1,19.322,19.24,19.053,19.053,0,0,1-6.839,14.689v5.232a23.306,23.306,0,0,0,11.092-19.921A23.556,23.556,0,0,0,180.059,72.656Z" fill="#1d428a"/><rect x="145.044" y="131.274" width="26.924" height="4.22" fill="#0091da"/><polygon points="147.432 125.915 144.446 122.932 150.927 116.442 144.446 109.952 147.432 106.97 156.892 116.442 147.432 125.915" fill="#0091da"/><path d="M177.2,145.37H139.432a4.76,4.76,0,0,1-4.755-4.755V101.533a4.76,4.76,0,0,1,4.755-4.755H177.2a4.76,4.76,0,0,1,4.755,4.755v39.082A4.76,4.76,0,0,1,177.2,145.37ZM139.432,101a.542.542,0,0,0-.534.535v39.082a.542.542,0,0,0,.534.535H177.2a.542.542,0,0,0,.534-.535V101.533A.542.542,0,0,0,177.2,101Z" fill="#0091da"/></svg>