<svg xmlns="http://www.w3.org/2000/svg" viewBox="0 0 16 16"><path d="M12.49,13.784a.319.319,0,0,1-.128-.612,4.954,4.954,0,0,0-.214-9.166.319.319,0,0,1,.229-.6,5.609,5.609,0,0,1,2.586,2.021,5.585,5.585,0,0,1-2.345,8.326A.32.32,0,0,1,12.49,13.784Z" fill="#0091da"/><path d="M.354,5.459a.4.4,0,0,1-.059,0A.319.319,0,0,1,.04,5.082,6.179,6.179,0,0,1,11.015,2.458a.319.319,0,1,1-.506.389A5.545,5.545,0,0,0,.667,5.2.318.318,0,0,1,.354,5.459Z" fill="#00c1d5"/><path d="M10.333,5.041l-.124,0A4.153,4.153,0,0,0,2.082,6.229v.042a3.008,3.008,0,0,0-.206,5.642V11.2a2.367,2.367,0,0,1,.612-4.379l.267-.062-.02-.274c-.007-.1-.01-.18-.01-.258a3.509,3.509,0,0,1,6.927-.775l.064.28L10,5.7a2.908,2.908,0,0,1,2.218,5.112v.791A3.525,3.525,0,0,0,13.9,8.592,3.563,3.563,0,0,0,10.333,5.041Z" fill="#1d428a"/><path d="M9.109,14.482H5.038v-.651H9.109ZM6.838,11.474,5.4,10.037l-.46.459.976.978-.976.977.46.459Zm3.787,3.807v-6.1A.727.727,0,0,0,9.9,8.451H4.189a.726.726,0,0,0-.725.726v6.1a.726.726,0,0,0,.725.725H9.9A.726.726,0,0,0,10.625,15.281ZM9.9,9.1a.076.076,0,0,1,.075.075v6.1a.076.076,0,0,1-.075.075H4.189a.077.077,0,0,1-.075-.075v-6.1A.076.076,0,0,1,4.189,9.1Z" fill="#0091da"/></svg>