<svg xmlns="http://www.w3.org/2000/svg" viewBox="0 0 400 400"><path d="M312.657,344.426a8,8,0,0,1-3.216-15.329,124.2,124.2,0,0,0-5.357-229.8,8,8,0,0,1,5.733-14.937,140.139,140.139,0,0,1,6.048,259.4A7.959,7.959,0,0,1,312.657,344.426Z" fill="#0091da"/><path d="M8.389,135.721a8.01,8.01,0,0,1-7.876-9.454C14.021,53.1,78.061,0,152.785,0A154.646,154.646,0,0,1,275.677,60.492a8,8,0,0,1-12.691,9.744A138.64,138.64,0,0,0,152.785,16C85.777,16,28.354,63.6,16.247,129.172A8,8,0,0,1,8.389,135.721Z" fill="#00c1d5"/><path d="M258.563,125.246q-1.53,0-3.1.057a104.013,104.013,0,0,0-99.679-73.92c-57.379,0-104.06,46.5-104.06,103.65,0,.345,0,.691.006,1.041a75.407,75.407,0,0,0-5.155,141.441V279.7A59.336,59.336,0,0,1,61.913,169.914l6.7-1.565-.5-6.851c-.181-2.477-.266-4.531-.266-6.465,0-48.284,39.449-87.566,87.938-87.566a87.873,87.873,0,0,1,85.736,68.13l1.6,7.014,7.164-.8a74.668,74.668,0,0,1,8.279-.477c40.393,0,73.255,32.722,73.255,72.942a72.233,72.233,0,0,1-25.927,55.686V289.8a88.351,88.351,0,0,0,42.05-75.522C347.941,165.184,307.846,125.246,258.563,125.246Z" fill="#1d428a"/><path d="M227.889,362.638H125.816v-16H227.889Zm-57.154-73.066-35.864-35.911L123.55,264.967l24.572,24.605L123.55,314.177l11.321,11.306Zm95,93.317V234.721a18.048,18.048,0,0,0-18.027-18.027H104.542a18.047,18.047,0,0,0-18.026,18.027V382.889a18.046,18.046,0,0,0,18.026,18.026H247.706A18.047,18.047,0,0,0,265.733,382.889Zm-18.027-150.2a2.054,2.054,0,0,1,2.027,2.027V382.889a2.054,2.054,0,0,1-2.027,2.026H104.542a2.053,2.053,0,0,1-2.026-2.026V234.721a2.054,2.054,0,0,1,2.026-2.027Z" fill="#0091da"/></svg>